<?xml version="1.0" encoding="UTF-8"?>
<svg id="Layer_2" data-name="Layer 2" xmlns="http://www.w3.org/2000/svg" viewBox="0 0 1534.45 298.24">
  <defs>
    <style>
      .cls-1 {
        fill: #393b42;
      }
    </style>
  </defs>
  <g id="Layer_1-2" data-name="Layer 1">
    <path class="cls-1" d="m61.72,28.93s80.48-65.23,170,.21c0,0-48.31-11.36-84.67,17.16,0,0-29.34-28.21-85.33-17.37Z"/>
    <path class="cls-1" d="m61.72,269.32s80.48,65.23,170-.21c0,0-48.31,11.36-84.67-17.16,0,0-29.34,28.21-85.33,17.37Z"/>
    <path class="cls-1" d="m134.02,235.94c.11.11.23.23.34.33-31.97,27.21-81.76,16.1-85.63,15.19C18.7,227.19-.03,189.94,0,148.51.04,99.27,31.11,54.87,49.36,46.97c6.8-2.7,54.79-12.54,85.64,15.9-.94.71-1.87,1.46-2.81,2.22-30.65,25.19-29.91,71.64-29.51,87.34.01.4.01.85,0,1.23-.17,5.66.6,51.31,31.34,82.28Z"/>
    <path class="cls-1" d="m159.78,235.94c-.11.11-.23.23-.34.33,31.97,27.21,81.76,16.1,85.63,15.19,30.03-24.27,48.76-61.52,48.73-102.95-.04-49.24-31.11-93.64-49.36-101.53-6.8-2.7-54.79-12.54-85.64,15.9.94.71,1.87,1.46,2.81,2.22,30.65,25.19,29.91,71.64,29.51,87.34-.01.4-.01.85,0,1.23.17,5.66-.6,51.31-31.34,82.28Z"/>
    <g>
      <path class="cls-1" d="m333.48,147.52c0-54.62,43.25-95.05,102.26-95.05s102.26,40.17,102.26,95.05-43.52,95.05-102.26,95.05-102.26-40.44-102.26-95.05Zm160.73,0c0-34.92-25.1-58.82-58.47-58.82s-58.47,23.89-58.47,58.82,25.1,58.82,58.47,58.82,58.47-23.89,58.47-58.82Z"/>
      <path class="cls-1" d="m697.67,239.42l-36.04-51.2h-39.78v51.2h-43.25V55.62h80.9c49.93,0,81.17,25.47,81.17,66.69,0,27.57-14.15,47.79-38.45,58.03l41.92,59.08h-46.46Zm-40.58-149.14h-35.24v64.07h35.24c26.43,0,39.78-12.08,39.78-32.03s-13.35-32.03-39.78-32.03Z"/>
      <path class="cls-1" d="m927.56,205.29v34.13h-144.71V55.62h141.24v34.13h-98.26v39.91h86.77v33.08h-86.77v42.54h101.73Z"/>
      <path class="cls-1" d="m957.73,147.52c0-55.4,43.25-95.05,101.46-95.05,32.31,0,59.27,11.55,76.9,32.56l-27.77,25.21c-12.55-14.18-28.3-21.53-46.99-21.53-34.98,0-59.81,24.16-59.81,58.82s24.83,58.82,59.81,58.82c18.69,0,34.44-7.35,46.99-21.79l27.77,25.21c-17.62,21.27-44.59,32.82-77.16,32.82-57.94,0-101.19-39.65-101.19-95.05Z"/>
      <path class="cls-1" d="m1210.04,90.28h-59.81v-34.66h162.87v34.66h-59.81v149.14h-43.25V90.28Z"/>
      <path class="cls-1" d="m1329.93,147.52c0-54.62,43.25-95.05,102.26-95.05s102.26,40.17,102.26,95.05-43.52,95.05-102.26,95.05-102.26-40.44-102.26-95.05Zm160.73,0c0-34.92-25.1-58.82-58.47-58.82s-58.47,23.89-58.47,58.82,25.1,58.82,58.47,58.82,58.47-23.89,58.47-58.82Z"/>
    </g>
  </g>
</svg>