<?xml version="1.0" encoding="UTF-8"?>
<svg width="700pt" height="700pt" version="1.1" viewBox="0 0 700 700" xmlns="http://www.w3.org/2000/svg">
 <g>
  <path d="m135.81 3.6797c7.3398-5.8281 18.016-4.6016 23.844 2.7344l401.06 504.96c5.8281 7.3398 4.6055 18.016-2.7344 23.844-7.3398 5.8281-18.012 4.6016-23.84-2.7344l-63.781-80.305c-10.965 10.73-22.656 20.812-35.02 30.164l-80.504 60.891c-6.1406 4.6445-14.633 4.5742-20.691-0.16797l-75.57-59.109c-61.383-48.016-105.43-114.17-125.54-188.72l-35.824-132.73c-6.4883-24.051 5.4961-48.957 27.965-59.422l49.57-23.094-41.664-52.457c-5.8281-7.3398-4.6055-18.012 2.7344-23.844zm60.637 103.63-56.945 26.527c-7.8516 3.6562-11.625 12.047-9.5273 19.812l35.82 132.74c18.184 67.375 58.02 127.28 113.69 170.83l65.289 51.07 70.094-53.016c12.16-9.2031 23.602-19.176 34.258-29.832z" fill-rule="evenodd"/>
  <path d="m531.12 287.16c-9.9453 34.203-25.496 66.355-45.848 95.293l21.914 27.594c25.359-34.004 44.582-72.352 56.523-113.41l38.816-133.43c7.0625-24.285-4.8906-49.75-27.699-60.375l-202.45-94.301c-14.012-6.5273-30.246-6.5273-44.258 0l-102.07 47.547 21.707 27.328 94.695-44.109c4.9297-2.2969 10.672-2.2969 15.598 0l202.45 94.301c7.9648 3.7109 11.719 12.289 9.4375 20.129z"/>
 </g>
</svg>
